# AST/ASF file generated using VICON BodyLanguage
# -----------------------------------------------
:version 1.10
:name VICON
:units
  mass 1.0
  length 0.45
  angle deg
:documentation
   .ast/.asf automatically generated from VICON data using
   VICON BodyBuilder and BodyLanguage model FoxedUp or BRILLIANT.MOD
:root
   order TX TY TZ RX RY RZ
   axis XYZ
   position 0 0 0  
   orientation 0 0 0 
:bonedata
  begin
     id 1 
     name lhipjoint
     direction 0.541323 -0.757556 0.364798 
     length 2.47576 
     axis 0 0 0  XYZ
  end
  begin
     id 2 
     name lfemur
     direction 0.34202 -0.939693 0  
     length 7.46493  
     axis 0 0 20  XYZ
    dof rx ry rz
    limits (-160.0 20.0)
           (-70.0 70.0)
           (-60.0 70.0)
  end
  begin
     id 3 
     name ltibia
     direction 0.34202 -0.939693 0   
     length 7.73805   
     axis 0 0 20   XYZ
    dof rx
    limits (-10.0 170.0)
  end
  begin
     id 4 
     name lfoot
     direction 0.107174 -0.294458 0.949636   
     length 2.25864   
     axis -90 7.62852e-016 20   XYZ
    dof rx rz
    limits (-45.0 90.0)
           (-70.0 20.0)
  end
  begin
     id 5 
     name ltoes
     direction 1.53606e-011 -4.21934e-011 1   
     length 1.12451   
     axis -90 7.62852e-016 20   XYZ
    dof rx
    limits (-90.0 20.0)
  end
  begin
     id 6 
     name rhipjoint
     direction -0.524745 -0.766967 0.36933   
     length 2.44538  
     axis 0 0 0  XYZ 
  end
  begin
     id 7 
     name rfemur
     direction -0.34202 -0.939693 0   
     length 7.61604   
     axis 0 0 -20   XYZ
    dof rx ry rz
    limits (-160.0 20.0)
           (-70.0 70.0)
           (-70.0 60.0)
  end
  begin
     id 8 
     name rtibia
     direction -0.34202 -0.939693 0   
     length 7.61056   
     axis 0 0 -20   XYZ
    dof rx
    limits (-10.0 170.0)
 end
 begin
     id 9 
     name rfoot
     direction -0.12616 -0.346623 0.929482   
     length 2.46372  
     axis -90 -7.62852e-016 -20   XYZ
    dof rx rz
    limits (-45.0 90.0)
           (-20.0 70.0)
  end
  begin
     id 10 
     name rtoes
     direction -1.53531e-011 -4.22004e-011 1   
     length 1.21611   
     axis -90 -7.62852e-016 -20   XYZ
    dof rx
    limits (-90.0 20.0)
  end
  begin
     id 11 
     name lowerback
     direction -0.000778023 0.997293 -0.0735223   
     length 2.06139   
     axis 0 0 0   XYZ
    dof rx ry rz
    limits (-20.0 45.0)
           (-30.0 30.0)
           (-30.0 30.0)
  end
  begin
     id 12 
     name upperback
     direction 0.0222598 0.999722 -0.0078355   
     length 2.06383   
     axis 0 0 0   XYZ
    dof rx ry rz
    limits (-20.0 45.0)
           (-30.0 30.0)
           (-30.0 30.0)
  end
  begin
     id 13 
     name thorax
     direction 0.0219654 0.999405 0.0265994   
     length 2.07163   
     axis 0 0 0   XYZ
    dof rx ry rz
    limits (-20.0 45.0)
           (-30.0 30.0)
           (-30.0 30.0)
  end
  begin
     id 14 
     name lowerneck
     direction 0.0213282 0.988147 0.15202   
     length 1.75969   
     axis 0 0 0   XYZ
    dof rx ry rz
    limits (-20.0 45.0)
           (-30.0 30.0)
           (-30.0 30.0)
  end
  begin
     id 15 
     name upperneck
     direction -0.0546456 0.982624 -0.177379   
     length 1.79244   
     axis 0 0 0   XYZ
    dof rx ry rz
    limits (-20.0 45.0)
           (-30.0 30.0)
           (-30.0 30.0)
  end
  begin
     id 16
     name head
     direction -0.0199987 0.996855 -0.076686  
     length 1.80555  
     axis 0 0 0   XYZ
    dof rx ry rz
    limits (-20.0 45.0)
           (-30.0 30.0)
           (-30.0 30.0)
  end
  begin
     id 17 
     name lclavicle
     direction 0.929565 0.363219 -0.063096  
     length 3.55722  
     axis 0 0 0   XYZ
    dof ry rz
    limits (-20.0 10.0)
           (0.0 20.0)
  end
  begin
     id 18 
     name lhumerus
     direction 1 -4.48993e-011 -2.36203e-027   
     length 4.92785   
     axis 180 -30 -90   XYZ
    dof rx ry rz
    limits (-60.0 90.0)
           (-90.0 90.0)
           (-90.0 90.0)
  end
  begin
     id 19
     name lradius
     direction 1 -4.48947e-011 2.02997e-027   
     length 3.44052   
     axis 180 -30 -90   XYZ
    dof rx
    limits (-10.0 170.0)
  end
  begin
     id 20
     name lwrist
     direction 1 -4.48962e-011 1.45991e-027   
     length 1.72026   
     axis 1.49639e-024 90 90   XYZ
    dof ry
    limits (-180.0 0.0)
 end
  begin
     id 21 
     name lhand
     direction 1 -4.48984e-011 2.91906e-027   
     length 0.654326   
     axis -1.863e-015 90 90   XYZ
    dof rx rz
    limits (-90.0 90.0)
           (-45.0 45.0)
  end
  begin
     id 22 
     name lfingers
     direction 1 -4.48961e-011 5.83968e-027   
     length 0.527534   
     axis -3.72598e-015 90 90   XYZ
    dof rx
    limits (0.0 90.0)
  end
  begin
     id 23
     name lthumb
     direction 0.707107 -6.34963e-011 0.707107   
     length 0.757437   
     axis -90 45 -6.68868e-015   XYZ
    dof rx rz
    limits (-45.0 45.0)
           (-45.0 45.0)
  end
  begin
     id 24 
     name rclavicle
     direction -0.902944 0.422599 -0.0781198   
     length 3.54432  
     axis 0 0 0   XYZ 
    dof ry rz
    limits (-10.0 20.0)
           (-20.0 0.0)
  end
  begin
     id 25 
     name rhumerus
     direction -1 -4.48953e-011 -4.75835e-028  
     length 5.09181   
     axis 180 30 90   XYZ
    dof rx ry rz
    limits (-90.0 60.0)
           (-90.0 90.0)
           (-90.0 90.0)
  end
  begin
     id 26 
     name rradius
     direction -1 -4.48986e-011 -3.25889e-027   
     length 3.49865   
     axis 180 30 90   XYZ
    dof rx
    limits (-10.0 170.0)
  end
  begin
     id 27 
     name rwrist
     direction -1 -4.48963e-011 1.45989e-027   
     length 1.74933   
     axis 1.49639e-024 -90 -90   XYZ
    dof ry
    limits (-180.0 0.0)
  end
  begin
     id 28
     name rhand
     direction -1 -4.49003e-011 2.91844e-027   
     length 0.66641   
     axis -1.863e-015 -90 -90   XYZ
    dof rx rz
    limits (-90.0 90.0)
           (-45.0 45.0)
  end
  begin
     id 29
     name rfingers
     direction -1 -4.48973e-011 5.83886e-027   
     length 0.537277   
     axis -3.72598e-015 -90 -90   XYZ
    dof rx
    limits (0.0 90.0)
  end
  begin
     id 30
     name rthumb
     direction -0.707107 -6.34976e-011 0.707107   
     length 0.771425   
     axis -90 -45 6.68868e-015   XYZ
    dof rx rz
    limits (-45.0 45.0)
           (-45.0 45.0)
  end
:hierarchy
  begin
    root lhipjoint rhipjoint lowerback
    lhipjoint lfemur
    lfemur ltibia
    ltibia lfoot
    lfoot ltoes
    rhipjoint rfemur
    rfemur rtibia
    rtibia rfoot
    rfoot rtoes
    lowerback upperback
    upperback thorax
    thorax lowerneck lclavicle rclavicle
    lowerneck upperneck
    upperneck head
    lclavicle lhumerus
    lhumerus lradius
    lradius lwrist
    lwrist lhand lthumb
    lhand lfingers
    rclavicle rhumerus
    rhumerus rradius
    rradius rwrist
    rwrist rhand rthumb
    rhand rfingers
  end

#!OML:ASF H:\LiuWeirdWalks\Patient Classification 1\Patient 1\Session 1\male.ASF
:FULLY-SPECIFIED
:DEGREES
95
root -0.0161022 16.6293 -7.76003 2.12004 7.58458 2.74526
lowerback 8.71276 -2.69931 -4.18913
upperback -1.62484 -3.82224 4.00067
thorax -6.05436 -1.66014 7.11814
lowerneck -21.6238 2.46785 7.86162
upperneck 10.111 1.99708 -6.12348
head 6.72188 0.722874 -3.03746
rclavicle 2.40529e-014 1.43125e-014
rhumerus -31.9073 -13.7294 -71.6786
rradius 68.6388
rwrist -10.6868
rhand -19.0949 -2.93062
rfingers 7.12502
rthumb 7.21357 -32.7877
lclavicle 2.40529e-014 1.43125e-014
lhumerus -32.8894 -5.4294 76.7431
lradius 70.0489
lwrist 7.76012
lhand -27.3324 -6.764
lfingers 7.12502
lthumb -0.741154 23.2145
rfemur -43.2964 -3.13594 14.1889
rtibia 37.7288
rfoot 8.58895 -5.22963
rtoes -8.49131
lfemur 24.3389 -6.66493 -26.3714
ltibia 15.5567
lfoot -11.3221 11.6478
ltoes -25.47
96
root -0.0261481 16.6334 -7.52184 1.87351 6.87905 1.86708
lowerback 9.07167 -2.57832 -3.32789
upperback -1.54468 -3.55206 4.28037
thorax -6.24641 -1.54596 6.91571
lowerneck -21.7993 2.69093 7.98282
upperneck 9.57207 2.26908 -6.38367
head 6.59923 0.828972 -3.10644
rclavicle -7.16619e-014 3.97569e-014
rhumerus -32.3535 -14.5386 -71.7314
rradius 67.8813
rwrist -10.7853
rhand -19.342 -3.33346
rfingers 7.12502
rthumb 6.97498 -33.1985
lclavicle -7.16619e-014 3.97569e-014
lhumerus -33.7017 -3.64644 76.8285
lradius 69.2273
lwrist 8.72606
lhand -28.9287 -6.26314
lfingers 7.12502
lthumb -2.28286 23.7044
rfemur -43.3207 -1.26461 14.3896
rtibia 37.9947
rfoot 9.68674 -7.74908
rtoes -6.07282
lfemur 23.8657 -6.56389 -25.6557
ltibia 18.1496
lfoot -10.1965 11.4452
ltoes -26.6678
97
root -0.0367123 16.6417 -7.28431 1.69235 6.17755 1.40044
lowerback 9.37779 -2.42835 -2.90626
upperback -1.45446 -3.29552 4.449
thorax -6.37404 -1.42811 6.83998
lowerneck -21.9378 2.87765 8.06668
upperneck 9.05488 2.50749 -6.6672
head 6.47661 0.916658 -3.18151
rclavicle -1.05356e-014 -2.54444e-014
rhumerus -32.7454 -15.2433 -71.7509
rradius 66.8893
rwrist -10.8125
rhand -19.692 -3.65196
rfingers 7.12502
rthumb 6.63711 -33.528
lclavicle -1.05356e-014 -2.54444e-014
lhumerus -34.4525 -2.09059 76.9365
lradius 68.1982
lwrist 9.71137
lhand -30.3791 -5.70806
lfingers 7.12502
lthumb -3.68359 24.2399
rfemur -43.3243 0.0619377 14.5143
rtibia 38.8523
rfoot 9.36102 -9.91244
rtoes -3.36579
lfemur 23.1178 -6.33045 -25.3101
ltibia 21.0657
lfoot -8.76398 10.9981
ltoes -27.6503
98
root -0.0488378 16.6553 -7.0471 1.56239 5.55237 1.27272
lowerback 9.63107 -2.27467 -2.87165
upperback -1.37477 -3.08357 4.53326
thorax -6.4598 -1.32135 6.89611
lowerneck -22.0611 3.02608 8.12916
upperneck 8.64403 2.70554 -6.96328
head 6.38424 0.984365 -3.26306
rclavicle 3.91606e-014 -1.59028e-014
rhumerus -33.0828 -15.8073 -71.7442
rradius 65.6585
rwrist -10.7744
rhand -20.1577 -3.92422
rfingers 7.12502
rthumb 6.18753 -33.8139
lclavicle 3.91606e-014 -1.59028e-014
lhumerus -35.1431 -0.778068 77.0782
lradius 66.9391
lwrist 10.6555
lhand -31.6623 -5.08025
lfingers 7.12502
lthumb -4.92266 24.8426
rfemur -43.2396 0.687488 14.7513
rtibia 40.1387
rfoot 8.14915 -10.7897
rtoes -1.74077
lfemur 22.2278 -6.03089 -25.2412
ltibia 23.9861
lfoot -6.87852 10.2644
ltoes -28.2697
99
root -0.0646079 16.6473 -6.81335 1.46024 5.07005 1.29496
lowerback 9.8094 -2.14296 -3.03037
upperback -1.29936 -2.92658 4.57968
thorax -6.49282 -1.23734 7.02424
lowerneck -22.2083 3.16386 8.22504
upperneck 8.37574 2.88588 -7.28616
head 6.34247 1.04286 -3.36204
rclavicle -1.6201e-014 3.18055e-015
rhumerus -33.3403 -16.275 -71.7332
rradius 64.2186
rwrist -10.6834
rhand -20.682 -4.2019
rfingers 7.12502
rthumb 5.68134 -34.1057
lclavicle -1.6201e-014 3.18055e-015
lhumerus -35.7272 0.275551 77.257
lradius 65.4362
lwrist 11.4587
lhand -32.7196 -4.34068
lfingers 7.12502
lthumb -5.94353 25.556
rfemur -43.1802 0.838298 15.0965
rtibia 41.6706
rfoot 6.60686 -10.7037
rtoes -1.7857
lfemur 21.2061 -5.72435 -25.23
ltibia 26.9472
lfoot -4.60995 9.27707
ltoes -28.2348
100
root -0.0813788 16.6823 -6.57506 1.38039 4.76887 1.30834
lowerback 9.91698 -2.05115 -3.20925
upperback -1.2393 -2.82487 4.62869
thorax -6.49397 -1.18081 7.17046
lowerneck -22.3768 3.26348 8.27764
upperneck 8.27077 3.02455 -7.5546
head 6.35264 1.08457 -3.44214
rclavicle -3.57812e-015 1.90833e-014
rhumerus -33.5574 -16.6625 -71.7133
rradius 62.6469
rwrist -10.5252
rhand -21.1901 -4.52048
rfingers 7.12502
rthumb 5.19078 -34.4369
lclavicle -3.57812e-015 1.90833e-014
lhumerus -36.1876 1.03873 77.4884
lradius 63.7016
lwrist 12.1117
lhand -33.4599 -3.4853
lfingers 7.12502
lthumb -6.65822 26.39
rfemur -42.8501 0.866934 15.4263
rtibia 42.8966
rfoot 5.11306 -10.7239
rtoes -1.8828
lfemur 20.0935 -5.46478 -25.0989
ltibia 29.7
lfoot -1.89234 8.01081
ltoes -27.5032
101
root -0.0992908 16.7305 -6.33644 1.3138 4.67679 1.2157
lowerback 9.96433 -2.0098 -3.27807
upperback -1.2073 -2.77476 4.69735
thorax -6.48786 -1.15315 7.27935
lowerneck -22.5201 3.33718 8.3143
upperneck 8.27741 3.13473 -7.78339
head 6.3921 1.11602 -3.51076
rclavicle 2.93207e-014 -4.92986e-014
rhumerus -33.7933 -17.0077 -71.6753
rradius 61.0356
rwrist -10.2993
rhand -21.6249 -4.91283
rfingers 7.12502
rthumb 4.771 -34.8391
lclavicle 2.93207e-014 -4.92986e-014
lhumerus -36.5202 1.49132 77.7849
lradius 61.7493
lwrist 12.5846
lhand -33.7889 -2.52907
lfingers 7.12502
lthumb -6.97579 27.336
rfemur -42.3228 0.762221 15.8439
rtibia 43.7927
rfoot 3.7901 -10.8588
rtoes -1.97412
lfemur 18.8318 -5.29336 -24.7603
ltibia 32.4744
lfoot 0.902209 6.52337
ltoes -26.0247
